<?xml version="1.0" standalone="no"?><!DOCTYPE svg PUBLIC "-//W3C//DTD SVG 1.1//EN" "http://www.w3.org/Graphics/SVG/1.1/DTD/svg11.dtd"><svg t="1724900512558" class="icon" viewBox="0 0 1024 1024" version="1.1" xmlns="http://www.w3.org/2000/svg" p-id="2479" xmlns:xlink="http://www.w3.org/1999/xlink" width="200" height="200"><path d="M952.376889 547.612444c-0.113778 0.113778-0.398222 0.170667-0.568889 0.341334l-404.821333 404.48a50.232889 50.232889 0 0 1-70.997334-70.997334L845.767111 512l-369.777778-369.436444a50.232889 50.232889 0 0 1 70.997334-70.940445l404.878222 404.48 0.568889 0.284445a50.232889 50.232889 0 0 1 0 71.224888zM548.067556 476.330667A50.062222 50.062222 0 0 1 562.744889 512a50.062222 50.062222 0 0 1-14.677333 35.612444c-0.170667 0.113778-0.455111 0.170667-0.568889 0.341334l-404.878223 404.48a50.232889 50.232889 0 0 1-70.997333-70.997334L441.400889 512l-369.777778-369.436444a50.176 50.176 0 1 1 70.997333-70.940445l404.878223 404.48 0.568889 0.284445z" fill="#666666" p-id="2480"></path></svg>