<?xml version="1.0" standalone="no"?><!DOCTYPE svg PUBLIC "-//W3C//DTD SVG 1.1//EN" "http://www.w3.org/Graphics/SVG/1.1/DTD/svg11.dtd"><svg t="1725287169159" class="icon" viewBox="0 0 1024 1024" version="1.1" xmlns="http://www.w3.org/2000/svg" p-id="4310" xmlns:xlink="http://www.w3.org/1999/xlink" width="200" height="200"><path d="M870.5 206.6h-719c-48.3 0-87.5 39.3-87.5 87.6v435.7c0 48.3 39.3 87.6 87.5 87.6h719c48.3 0 87.5-39.3 87.5-87.6V294.2c0-48.3-39.3-87.6-87.5-87.6z m0 56.4c4.1 0 8 0.8 11.6 2.3L519.9 549 154.3 263h716.2zM165.2 761.1l242.2-170.8c8.5-6 10.5-17.7 4.5-26.2s-17.7-10.5-26.2-4.5L123.9 744.2c-2.2-4.3-3.6-9.1-3.6-14.3V294.2c0-3.1 0.6-6.1 1.5-9l375 293.3c6.8 5.3 15 8 23.2 8s16.4-2.7 23.2-8l358.6-280.8v432.2c0 0.6-0.2 1.2-0.2 1.8L657.3 559.6c-8.5-6-20.2-3.9-26.2 4.5-6 8.5-4 20.2 4.5 26.2l241.2 170.1c-2.1 0.4-4.2 0.7-6.4 0.7H165.2z" fill="#4F4F4F" p-id="4311"></path></svg>