<?xml version="1.0" standalone="no"?><!DOCTYPE svg PUBLIC "-//W3C//DTD SVG 1.1//EN" "http://www.w3.org/Graphics/SVG/1.1/DTD/svg11.dtd"><svg t="1725285957963" class="icon" viewBox="0 0 1024 1024" version="1.1" xmlns="http://www.w3.org/2000/svg" p-id="4264" xmlns:xlink="http://www.w3.org/1999/xlink" width="200" height="200"><path d="M511.268191 598.885655c163.525988 0 295.251559-131.725572 295.25156-295.251559S674.794179 8.515593 511.268191 8.515593s-295.251559 131.725572-295.251559 295.251559 131.725572 295.118503 295.251559 295.118503z" fill="#678597" p-id="4265"></path><path d="M695.550936 590.503119c-53.089397 34.328482-116.158004 53.754678-184.282745 53.754677-95.401247 0-179.359667-38.586279-240.698544-99.925156C168.382536 617.114345 102.519751 790.619543 102.519751 924.607069v29.538461c2.261954 34.06237 34.06237 61.338877 68.12474 61.338877h184.4158l340.490645-424.981288zM899.659044 808.848233c-20.623701-65.064449-56.681913-151.417879-102.320167-212.357589L465.097713 1015.484407h386.794179c34.06237 0 65.862786-27.276507 68.12474-61.338877 4.523909-49.89605-2.261954-93.139293-20.357588-145.297297z" fill="#678597" p-id="4266"></path></svg>