<?xml version="1.0" standalone="no"?><!DOCTYPE svg PUBLIC "-//W3C//DTD SVG 1.1//EN" "http://www.w3.org/Graphics/SVG/1.1/DTD/svg11.dtd"><svg t="1724330009314" class="icon" viewBox="0 0 1024 1024" version="1.1" xmlns="http://www.w3.org/2000/svg" p-id="4394" xmlns:xlink="http://www.w3.org/1999/xlink" width="200" height="200"><path d="M512 0C229.216 0 0 229.216 0 512c0 282.768 229.216 512 512 512 282.752 0 512-229.232 512-512C1024 229.216 794.752 0 512 0zM512 992C246.896 992 32 777.088 32 512 32 246.896 246.896 32 512 32c265.056 0 480 214.896 480 480C992 777.088 777.056 992 512 992z" fill="#18191E" p-id="4395"></path><path d="M799.568 760.928l-132.016-132.016c39.824-45.12 64.208-104.24 64.208-169.152 0-141.376-114.624-256-256-256s-256 114.624-256 256 114.624 256 256 256c64.928 0 124.032-24.368 169.152-64.208l132.016 132.016c6.272 6.256 16.368 6.256 22.64 0C805.808 777.296 805.808 767.184 799.568 760.928zM475.744 683.744c-123.712 0-224-100.288-224-224s100.288-224 224-224c123.696 0 224 100.288 224 224S599.456 683.744 475.744 683.744z" p-id="4396"></path></svg>